<?xml version="1.0" encoding="UTF-8" standalone="no"?>
<svg
   inkscape:version="1.2.2 (732a01da63, 2022-12-09, custom)"
   sodipodi:docname="Apache_Spark_logo.svg"
   version="1.1"
   viewBox="0 0 414 215"
   xml:space="preserve"
   id="svg678"
   xmlns:inkscape="http://www.inkscape.org/namespaces/inkscape"
   xmlns:sodipodi="http://sodipodi.sourceforge.net/DTD/sodipodi-0.dtd"
   xmlns:xlink="http://www.w3.org/1999/xlink"
   xmlns="http://www.w3.org/2000/svg"
   xmlns:svg="http://www.w3.org/2000/svg"
   xmlns:rdf="http://www.w3.org/1999/02/22-rdf-syntax-ns#"
   xmlns:cc="http://creativecommons.org/ns#"
   xmlns:dc="http://purl.org/dc/elements/1.1/"><defs
   id="defs680"><linearGradient
     inkscape:collect="always"
     id="linearGradient1756"><stop
       style="stop-color:#e34e1c;stop-opacity:1;"
       offset="0"
       id="stop1752" /><stop
       style="stop-color:#3d3b3f;stop-opacity:1;"
       offset="1"
       id="stop1754" /></linearGradient><linearGradient
     inkscape:collect="always"
     id="linearGradient1720"><stop
       style="stop-color:#e34f1c;stop-opacity:1;"
       offset="0"
       id="stop1716" /><stop
       style="stop-color:#3d3c3f;stop-opacity:1;"
       offset="1"
       id="stop1718" /></linearGradient><linearGradient
     inkscape:collect="always"
     xlink:href="#linearGradient1720"
     id="linearGradient1722"
     x1="51.355439"
     y1="101.38653"
     x2="122.29793"
     y2="101.38653"
     gradientUnits="userSpaceOnUse" /><linearGradient
     inkscape:collect="always"
     xlink:href="#linearGradient1756"
     id="linearGradient1758"
     x1="240.4776"
     y1="126.17456"
     x2="276.91634"
     y2="126.17456"
     gradientUnits="userSpaceOnUse" /></defs>
<title
   id="title644">Apache Spark logo</title>
<metadata
   id="metadata646">
    <rdf:RDF>
        <cc:Work
   rdf:about="">
            <dc:format>image/svg+xml</dc:format>
            <dc:type
   rdf:resource="http://purl.org/dc/dcmitype/StillImage" />
            <dc:title />
        </cc:Work>
    </rdf:RDF>
</metadata>
<sodipodi:namedview
   bordercolor="#666666"
   borderopacity="1"
   gridtolerance="10"
   guidetolerance="10"
   inkscape:current-layer="g676"
   inkscape:cx="188.44204"
   inkscape:cy="155.245"
   inkscape:pageopacity="0"
   inkscape:pageshadow="2"
   inkscape:window-height="731"
   inkscape:window-maximized="1"
   inkscape:window-width="1352"
   inkscape:window-x="5"
   inkscape:window-y="28"
   inkscape:zoom="1.5362814"
   objecttolerance="10"
   pagecolor="#ffffff"
   showgrid="false"
   id="namedview648"
   inkscape:showpageshadow="2"
   inkscape:pagecheckerboard="0"
   inkscape:deskcolor="#d1d1d1" /><g
   transform="matrix(1.33 0 0 1.33 0 4.05e-6)"
   inkscape:groupmode="layer"
   inkscape:label="spark"
   id="g676"><path
     d="m 253.9248,81.5 c -0.269,-0.575 -0.39,-0.864 -0.535,-1.14 -3.89,-7.4 -7.77,-14.8 -11.7,-22.2 -0.394,-0.742 -0.344,-1.18 0.195,-1.82 6.19,-7.23 12.3,-14.5 18.5,-21.7 0.219,-0.254 0.414,-0.523 0.496,-0.976 -1.8,0.469 -3.6,0.933 -5.41,1.41 -7.47,1.98 -15,3.95 -22.4,5.96 -0.695,0.187 -1.01,-0.016 -1.36,-0.594 -4.24,-7.09 -8.51,-14.2 -12.8,-21.2 -0.219,-0.367 -0.458,-0.723 -0.926,-1.03 -0.344,1.89 -0.692,3.77 -1.03,5.66 -1.19,6.67 -2.38,13.3 -3.56,20 -0.129,0.719 -0.305,1.44 -0.367,2.16 -0.059,0.688 -0.414,0.942 -1.04,1.14 -8.81,2.77 -17.6,5.56 -26.4,8.35 -0.386,0.121 -0.765,0.281 -1.18,0.656 7.2,2.86 14.4,5.72 21.7,8.63 -0.266,0.211 -0.442,0.375 -0.637,0.5 -4.5,2.91 -9.01,5.82 -13.5,8.74 -0.539,0.352 -0.965,0.402 -1.57,0.129 -5.38,-2.42 -10.8,-4.8 -16.2,-7.2 -2.42,-1.08 -4.59,-2.51 -6.28,-4.59 -3.83,-4.68 -3.07,-10 2.03,-13.3 1.67,-1.07 3.57,-1.86 5.46,-2.48 8.63,-2.81 17.3,-5.52 25.9,-8.24 0.726,-0.231 1.06,-0.555 1.2,-1.34 1.16,-6.68 2.35,-13.4 3.56,-20 0.644,-3.57 0.984,-7.22 2.72,-10.5 0.665,-1.26 1.46,-2.49 2.42,-3.54 3.44,-3.82 8.23,-3.96 11.9,-0.328 1.23,1.23 2.28,2.67 3.19,4.16 4,6.53 7.94,13.1 11.9,19.7 0.465,0.777 0.883,0.933 1.74,0.707 9.65,-2.59 19.3,-5.14 29,-7.69 2,-0.527 4.01,-0.718 6.06,-0.335 4.45,0.832 6.4,4.22 4.89,8.53 -0.683,1.96 -1.87,3.61 -3.2,5.18 -6.74,7.93 -13.5,15.9 -20.2,23.8 -0.551,0.648 -0.562,1.11 -0.18,1.84 4.04,7.61 8.04,15.2 12.1,22.9 0.961,1.82 1.7,3.72 1.72,5.81 0.047,4.76 -3.44,8.66 -8.17,9.36 -2.65,0.387 -5.11,-0.179 -7.6,-0.945 -6.05,-1.87 -12.1,-3.71 -18.2,-5.54 -0.563,-0.168 -0.778,-0.391 -0.879,-0.996 -0.696,-4.27 -1.46,-8.53 -2.2,-12.8 -0.019,-0.117 0.016,-0.242 0.036,-0.504 6.91,1.91 13.8,3.79 20.9,5.76"
     style="fill:#e25a1c;fill-rule:evenodd"
     id="path650" /><path
     d="m 241.9248,144 c -5.46,-0.008 -10.9,-0.035 -16.4,-0.011 -0.723,0 -1.13,-0.207 -1.53,-0.821 -6.46,-9.84 -13,-19.7 -19.4,-29.5 -0.207,-0.312 -0.426,-0.613 -0.793,-1.14 -1.39,10.6 -2.76,21 -4.13,31.4 h -14.3 c 0.168,-1.39 0.317,-2.74 0.493,-4.08 1.39,-10.7 2.8,-21.3 4.2,-32 1.34,-10.2 2.67,-20.4 4.03,-30.6 0.039,-0.301 0.242,-0.688 0.488,-0.848 4.92,-3.21 9.86,-6.39 14.8,-9.57 0.071,-0.047 0.172,-0.051 0.426,-0.125 -1.49,11.4 -2.97,22.7 -4.46,34 0.059,0.039 0.117,0.082 0.176,0.121 7.75,-8.58 15.5,-17.2 23.4,-25.9 0.227,1.32 0.426,2.45 0.621,3.58 0.555,3.23 1.09,6.48 1.68,9.71 0.121,0.652 -0.055,1.05 -0.488,1.51 -5.01,5.24 -10,10.5 -15,15.8 -0.219,0.231 -0.426,0.469 -0.676,0.743 0.16,0.253 0.297,0.5 0.457,0.726 8.61,12.1 17.2,24.2 25.8,36.3 0.156,0.219 0.382,0.391 0.574,0.586 v 0.191"
     style="fill:#3c3a3e;fill-rule:evenodd"
     id="path652" /><path
     d="m58.6 76.5c-4.4 3.28-8.65 6.44-12.9 9.61-.687-1.08-1.3-2.16-2.02-3.17-1.85-2.59-4.15-4.52-7.49-4.75-2.78-.196-5.16.718-7.05 2.77-1.69 1.83-1.91 4.44-.332 6.51 1.74 2.28 3.64 4.44 5.59 6.55 3.23 3.5 6.6 6.86 9.8 10.4 2.91 3.2 5.24 6.78 5.96 11.2.856 5.2-.183 10.1-2.64 14.7-4.55 8.45-11.7 13.4-21.2 14.9-4.18.675-8.34.543-12.4-.657-5.41-1.59-9.18-5.14-11.6-10.1-.855-1.77-1.51-3.64-2.28-5.54 4.73-2.53 9.34-5 14-7.49.16.387.277.711.426 1.02.797 1.59 1.45 3.28 2.43 4.75 2.93 4.35 7.65 5.67 12.4 3.52 1.23-.555 2.42-1.33 3.43-2.23 3.08-2.74 3.66-6.56 1.38-10-1.31-1.98-2.95-3.76-4.55-5.53-3.82-4.24-7.8-8.35-11.5-12.7-2.57-2.98-4.32-6.44-4.88-10.4-.605-4.36.266-8.46 2.53-12.1 5.63-9.11 13.8-13.8 24.6-13.5 6.17.223 11.1 3.11 14.9 7.91 1.13 1.42 2.19 2.89 3.34 4.43"
     style="fill-rule:evenodd;fill:#3c3a3e;fill-opacity:1"
     id="path656" /><path
     d="m163 125c-.719 5.49-1.4 10.7-2.1 15.9-.039.266-.246.625-.469.727-10.7 4.94-24.7 4.25-33.4-5.69-4.7-5.34-6.67-11.7-6.38-18.7.683-16.3 14.2-30.6 30.4-32.6 9.45-1.16 17.7 1.39 24.1 8.74 4.36 5 6.38 11 6.08 17.6-.195 4.36-.879 8.69-1.42 13-.77 6.14-1.61 12.3-2.42 18.4-.031.214-.074.433-.125.711h-12.7c.168-1.41.324-2.79.504-4.17.922-7.09 1.94-14.2 2.75-21.3.504-4.42.187-8.81-1.84-12.9-2.15-4.35-5.75-6.66-10.5-7.16-9.82-1.04-19.2 5.78-21.2 15.4-1.38 6.38.797 12.5 5.88 15.9 4.95 3.29 10.2 3.3 15.6 1.17 2.74-1.08 5.06-2.8 7.28-5.11"
     style="fill-rule:evenodd;fill:#3c3a3e"
     id="path658" /><path
     d="m 252.55348,132.41891 c 3.19013,2.64796 10.49274,2.22537 18.7408,-0.25135 3.67246,-1.58007 3.71691,-1.63489 4.3317,-3.2882 2.34297,-6.83442 1.24389,-13.96173 -5.36234,-18.64526 -3.55067,-2.53205 -7.55252,-3.33541 -11.80323,-2.72048 -9.8976,1.43659 -17.77235,10.57467 -17.97821,20.5792 -0.11602,5.83555 1.95536,10.70713 6.83818,14.15012 3.32204,2.34598 7.10748,3.20236 11.11363,2.60637 2.64669,-0.39177 5.48108,-0.77972 8.02893,-1.32174 3.41162,-1.20904 5.89465,-2.0355 8.08313,-4.08327 1.0599,-1.31563 1.24624,-1.94084 1.47283,-2.53997 l 0.89744,-4.73254 c -0.84935,0.19069 -3.63175,1.87912 -4.46206,2.07525 -4.86628,1.64769 -4.84117,1.64804 -9.61497,2.68178 -2.66395,0.58396 -6.55561,-0.008 -9.17669,-0.98841 -2.78735,-1.03892 -4.42136,-3.08977 -5.02354,-5.95521 -1.24878,-5.92351 2.32329,-12.07059 8.06476,-13.89229 3.8044,-1.24086 7.67284,-0.29624 10.0644,2.59079 2.31614,2.8128 3.09179,6.07105 2.13077,9.49747 -6.24477,2.35618 -11.80641,3.0078 -17.79597,1.88932"
     style="fill:url(#linearGradient1758);fill-rule:evenodd;stroke-width:0.61304;fill-opacity:1"
     id="path658-5"
     sodipodi:nodetypes="cccccccccccccccccccc" /><path
     d="m 311.73688,86.3 c -0.582,4.42 -1.16,8.77 -1.74,13.2 -2.7,0 -5.34,-0.015 -7.98,0.004 -2.14,0.016 -4.09,1.4 -4.74,3.4 -0.25,0.781 -0.343,1.62 -0.453,2.44 -1.34,10.2 -2.67,20.3 -4,30.4 -0.336,2.56 -0.66,5.12 -0.996,7.72 h -13.3 c 0.246,-1.95 0.48,-3.84 0.726,-5.73 0.863,-6.58 1.73,-13.2 2.6,-19.7 0.754,-5.69 1.43,-11.4 2.32,-17.1 1.19,-7.6 8.75,-14.4 16.4,-14.7 3.66,-0.16 7.33,-0.027 11.1,-0.027"
     style="fill:#3c3a3e;fill-rule:evenodd"
     id="path660" /><path
     id="path660-7"
     style="fill:url(#linearGradient1722);fill-rule:evenodd;fill-opacity:1;stroke-width:2.87969925;stroke-dasharray:none"
     d="M 83.511513 54.738895 C 81.665267 54.725645 79.833109 54.732321 78.003113 54.812321 C 70.353129 55.112319 62.792735 61.912172 61.602737 69.512156 C 60.712739 75.212146 60.036482 80.923026 59.282484 86.613014 C 58.412484 93.113 57.54621 99.733159 56.683212 106.31314 C 56.437212 108.20314 56.202297 110.09329 55.956297 112.04329 L 56.063499 112.04329 C 55.588182 115.56793 55.147601 119.09282 54.681626 122.60925 C 53.811628 129.10925 52.943884 135.7294 52.080886 142.30938 C 51.834886 144.19938 51.601439 146.08953 51.355439 148.03953 L 64.654312 148.03953 C 64.99031 145.43953 65.315435 142.87953 65.651433 140.31955 C 66.981431 130.21957 68.310202 120.11833 69.6502 109.91835 C 69.7602 109.09835 69.853971 108.26014 70.103971 107.47914 C 70.753969 105.47916 72.704343 104.09553 74.844337 104.07953 C 77.484333 104.06063 113.44926 104.15002 116.14926 104.15002 C 116.72926 99.720033 117.11509 95.187433 117.69707 90.767443 L 84.501292 90.782128 C 80.7313 90.782128 77.060779 90.648561 73.400787 90.808561 C 72.937899 90.826714 72.475347 90.870367 72.014509 90.934854 C 72.759868 85.271996 73.502656 79.630071 74.252526 73.922107 C 74.362526 73.102109 74.456297 72.263903 74.706297 71.482903 C 75.356295 69.482907 77.305199 68.099291 79.445195 68.083291 C 82.085189 68.064291 118.05012 68.15378 120.75012 68.15378 C 121.33012 63.723788 121.71593 59.191194 122.29793 54.771202 L 89.10215 54.785887 C 87.217154 54.785887 85.357759 54.752145 83.511513 54.738895 z M 97.051222 115.37829 C 96.049757 115.3946 94.632414 115.47875 92.704417 115.63968 C 89.892102 115.87444 88.209736 116.08969 87.30175 116.30786 C 87.488172 116.36843 87.432307 116.7225 87.245947 117.25064 C 88.467146 117.70728 90.878216 118.26218 93.015742 119.02461 C 94.981812 117.9198 97.253371 116.97305 98.372885 116.32107 C 98.092718 115.8309 97.974133 115.49299 98.148203 115.40325 C 97.854402 115.38295 97.51104 115.3708 97.051222 115.37829 z M 98.148203 115.40325 C 98.341876 115.41664 98.507569 115.43567 98.63575 115.46052 C 98.398083 115.37946 98.23437 115.35883 98.148203 115.40325 z M 98.63575 115.46052 C 98.750328 115.4996 98.894029 115.56097 99.048402 115.63234 C 98.999993 115.55805 98.855356 115.5031 98.63575 115.46052 z M 99.048402 115.63234 C 99.15313 115.79306 98.872699 116.03 98.372885 116.32107 C 99.000803 117.41966 100.47134 119.32296 101.59481 121.2171 C 103.84533 121.57636 106.22282 122.24565 107.52027 122.43303 C 107.63567 121.88687 107.77346 121.55336 107.96669 121.59011 C 107.29441 120.96796 105.95062 119.98008 103.63898 118.43573 C 101.32522 116.88998 99.890731 116.02175 99.048402 115.63234 z M 107.96669 121.59011 C 108.10662 121.71959 108.22128 121.83581 108.30298 121.93374 C 108.17524 121.72552 108.06278 121.60838 107.96669 121.59011 z M 108.30298 121.93374 C 108.36453 122.03406 108.43239 122.17031 108.5027 122.31996 C 108.51573 122.23332 108.4427 122.10119 108.30298 121.93374 z M 108.5027 122.31996 C 108.47453 122.50731 108.09966 122.51671 107.52027 122.43303 C 107.26106 123.65977 107.10622 126.01976 106.69055 128.16024 C 108.17234 129.81555 109.54419 131.78667 110.41177 132.72585 C 110.86726 132.37889 111.19695 132.20772 111.32078 132.35285 C 111.22477 131.46377 110.86142 129.8819 110.13129 127.28207 C 109.40026 124.67906 108.88561 123.13488 108.5027 122.31996 z M 111.32078 132.35285 C 111.3412 132.54194 111.34966 132.70346 111.34575 132.83012 C 111.3901 132.58652 111.38343 132.42628 111.32078 132.35285 z M 111.34575 132.83012 C 111.32511 132.94346 111.2847 133.08788 111.23855 133.24277 C 111.30716 133.18577 111.33921 133.04145 111.34575 132.83012 z M 111.23855 133.24277 C 111.09025 133.36597 110.79777 133.1437 110.41177 132.72585 C 109.38675 133.50665 107.67847 135.22096 105.91812 136.60567 C 105.93788 138.78184 105.66016 141.13148 105.69196 142.38281 C 106.27579 142.39641 106.64363 142.46795 106.63916 142.65595 C 107.16458 141.9164 107.95154 140.48119 109.14444 138.04041 C 110.33719 135.59994 110.98243 134.10223 111.23855 133.24277 z M 106.63916 142.65595 C 106.54375 142.79024 106.45302 142.91281 106.37482 143.00105 C 106.54077 142.86028 106.63709 142.74287 106.63916 142.65595 z M 106.37482 143.00105 C 106.27591 143.08496 106.14082 143.18141 105.97686 143.28741 C 106.07563 143.28575 106.20895 143.18824 106.37482 143.00105 z M 105.97686 143.28741 C 105.78029 143.29072 105.70612 142.93975 105.69196 142.38281 C 104.38069 142.35227 101.91748 142.61758 99.635808 142.59868 C 98.184266 144.27854 96.387724 145.90877 95.56949 146.88675 C 96.009304 147.25663 96.242867 147.53591 96.109904 147.67681 C 97.010457 147.43271 98.581881 146.81674 101.14104 145.67816 C 103.69831 144.54041 105.20146 143.78873 105.97686 143.28741 z M 96.109904 147.67681 C 95.941672 147.72241 95.787875 147.76016 95.666412 147.7796 C 95.894126 147.77465 96.047974 147.74243 96.109904 147.67681 z M 95.666412 147.7796 C 95.536516 147.78243 95.370919 147.77187 95.180334 147.75317 C 95.256151 147.8113 95.420252 147.81901 95.666412 147.7796 z M 95.180334 147.75317 C 95.026864 147.63551 95.205415 147.3219 95.56949 146.88675 C 94.585389 146.05912 92.520012 144.75101 90.785068 143.33734 C 88.541542 143.73397 86.067593 143.88155 84.781779 144.12887 C 84.869081 144.67932 84.859927 145.03656 84.665766 145.06579 C 85.520466 145.43104 87.13825 145.92255 89.864309 146.61948 C 92.590476 147.31642 94.248753 147.66177 95.180334 147.75317 z M 84.665766 145.06579 C 84.490794 144.99101 84.34214 144.92024 84.231086 144.85579 C 84.423624 145.00724 84.569738 145.08024 84.665766 145.06579 z M 84.231086 144.85579 C 84.135687 144.78075 84.021654 144.67518 83.899201 144.55474 C 83.917258 144.64162 84.034976 144.74197 84.231086 144.85579 z M 83.899201 144.55474 C 83.860896 144.37045 84.209495 144.23895 84.781779 144.12887 C 84.585554 142.89166 83.885301 140.62307 83.508576 138.47656 C 81.52241 137.40442 79.527939 135.99925 78.376116 135.40002 C 78.071752 135.87586 77.82353 136.14388 77.655075 136.04617 C 78.06366 136.8501 78.97314 138.2178 80.592105 140.42381 C 82.210962 142.62967 83.247149 143.91341 83.899201 144.55474 z M 77.655075 136.04617 C 77.57563 135.88985 77.510046 135.74871 77.468574 135.63498 C 77.513713 135.8567 77.574369 135.99935 77.655075 136.04617 z M 77.468574 135.63498 C 77.444317 135.51584 77.426128 135.36149 77.41277 135.18562 C 77.367549 135.26562 77.389672 135.41863 77.468574 135.63498 z M 77.41277 135.18562 C 77.506717 135.01942 77.862424 135.13277 78.376116 135.40002 C 79.05936 134.33185 80.051269 132.16501 81.208882 130.28959 C 80.409667 128.25027 79.826929 125.95126 79.348273 124.78559 C 78.792651 124.96396 78.422243 125.01639 78.361431 124.83552 C 78.132621 125.70141 77.908622 127.30798 77.662418 129.99295 C 77.416273 132.67727 77.345113 134.29483 77.41277 135.18562 z M 78.361431 124.83552 C 78.40594 124.66709 78.45163 124.51912 78.496534 124.40672 C 78.382081 124.60326 78.332601 124.74978 78.361431 124.83552 z M 78.496534 124.40672 C 78.558354 124.30056 78.649673 124.17214 78.75793 124.02931 C 78.668977 124.0618 78.582229 124.19222 78.496534 124.40672 z M 78.75793 124.02931 C 78.941339 123.96231 79.135485 124.26739 79.348273 124.78559 C 80.591448 124.3865 82.812443 123.33324 84.963875 122.60632 C 85.725509 120.55464 86.827408 118.43678 87.245947 117.25064 C 86.701826 117.04718 86.383442 116.8606 86.455886 116.68526 C 85.697169 117.20845 84.442226 118.29862 82.445371 120.20383 C 80.44977 122.10784 79.306715 123.30525 78.75793 124.02931 z M 86.455886 116.68526 C 86.60816 116.58026 86.74431 116.49327 86.85679 116.43415 C 86.628279 116.51636 86.491146 116.59992 86.455886 116.68526 z M 86.85679 116.43415 C 86.973619 116.39212 87.128307 116.34953 87.30175 116.30786 C 87.213078 116.27904 87.061151 116.32673 86.85679 116.43415 z M 84.963875 122.60632 C 84.305807 124.37901 83.913428 126.08618 84.479265 127.06767 C 85.109971 126.94847 85.748461 127.18058 86.380992 127.91353 C 87.199635 127.90625 88.304798 127.66344 89.726269 127.15137 C 90.263524 125.79408 90.519059 124.74026 90.526609 123.95882 C 89.758483 123.3555 89.515057 122.74679 89.639626 122.1452 C 88.61127 121.60483 86.821906 121.97853 84.963875 122.60632 z M 89.639626 122.1452 C 90.202262 122.44085 90.535774 123.01031 90.526609 123.95882 C 91.158964 124.4555 92.168242 124.94766 93.603148 125.42733 C 94.927663 124.71775 95.831787 124.06626 96.363957 123.47274 C 96.181928 122.53922 96.406319 121.92168 96.907307 121.53724 C 96.482486 120.49333 94.861242 119.68288 93.015742 119.02461 C 91.317234 119.97906 89.867188 121.04623 89.639626 122.1452 z M 96.907307 121.53724 C 97.140178 122.10947 97.011417 122.75064 96.363957 123.47274 C 96.513762 124.241 96.956633 125.23582 97.732613 126.4832 C 99.225546 126.75201 100.35693 126.80829 101.16453 126.67998 C 101.65397 125.85304 102.24141 125.51898 102.88416 125.5316 C 103.26333 124.47111 102.56596 122.85444 101.59481 121.2171 C 99.651688 120.90691 97.821812 120.83549 96.907307 121.53724 z M 102.88416 125.5316 C 102.67666 126.11196 102.1461 126.52402 101.16453 126.67998 C 100.76204 127.36002 100.43088 128.39414 100.18503 129.82407 C 101.14792 130.94598 101.97771 131.68278 102.68298 132.07971 C 103.61414 131.74723 104.28913 131.85217 104.77267 132.25593 C 105.77719 131.676 106.33145 130.00949 106.69055 128.16024 C 105.41077 126.73058 104.0577 125.55464 102.88416 125.5316 z M 104.77267 132.25593 C 104.22281 132.57338 103.53984 132.56195 102.68298 132.07971 C 101.91596 132.35358 100.96508 132.94309 99.81203 133.88892 C 99.793785 135.33944 99.932553 136.41237 100.20559 137.14902 C 101.14371 137.46542 101.5919 137.9585 101.69026 138.56467 C 102.85043 138.73603 104.39742 137.80187 105.91812 136.60567 C 105.90104 134.72522 105.65614 132.99363 104.77267 132.25593 z M 101.69026 138.56467 C 101.05504 138.47085 100.53722 138.04376 100.20559 137.14902 C 99.433461 136.8886 98.308506 136.75565 96.788358 136.77308 C 95.7972 137.87297 95.179726 138.78012 94.892505 139.51186 C 95.398377 140.3298 95.409027 140.98131 95.076069 141.50611 C 95.84902 142.34925 97.664782 142.58235 99.635808 142.59868 C 100.88946 141.14784 101.86987 139.67154 101.69026 138.56467 z M 95.076069 141.50611 C 94.653008 141.04463 94.543687 140.40054 94.892505 139.51186 C 94.476491 138.83922 93.704822 138.04814 92.529664 137.12993 C 91.029986 137.36454 89.945847 137.67971 89.232848 138.06391 C 89.069384 139.00114 88.637459 139.5064 88.028665 139.70424 C 88.052675 140.82415 89.286202 142.11604 90.785068 143.33734 C 92.722972 142.99475 94.468133 142.46431 95.076069 141.50611 z M 88.028665 139.70424 C 88.015521 139.09111 88.36637 138.53081 89.232848 138.06391 C 89.367234 137.2934 89.307478 136.21327 89.025787 134.78912 C 87.719552 134.04957 86.67618 133.62654 85.871417 133.48361 C 85.114933 134.10096 84.442938 134.22386 83.843398 134.00199 C 83.107529 134.87504 83.183004 136.6215 83.508576 138.47656 C 85.223501 139.40228 86.917633 140.06528 88.028665 139.70424 z M 83.843398 134.00199 C 84.246389 133.52388 84.892686 133.30977 85.871417 133.48361 C 86.49359 132.97587 87.176131 132.1131 87.919995 130.84909 C 87.417239 129.48018 86.901563 128.51675 86.380992 127.91353 C 85.386116 127.92238 84.789056 127.60502 84.479265 127.06767 C 83.327556 127.28532 82.209113 128.66914 81.208882 130.28959 C 81.898836 132.05011 82.74929 133.5971 83.843398 134.00199 z M 87.919995 130.84909 C 88.133099 131.42933 88.345222 132.05823 88.552925 132.79781 C 88.760704 133.53766 88.906252 134.18478 89.025787 134.78912 C 89.580306 135.10307 90.166827 135.45539 90.824718 135.89491 C 91.482615 136.33443 92.030797 136.74014 92.529664 137.12993 C 93.165616 137.03045 93.852162 136.93968 94.651668 136.87294 C 95.451173 136.8062 96.143961 136.78047 96.788358 136.77308 C 97.208498 136.30685 97.674697 135.81664 98.242188 135.2752 C 98.809863 134.73357 99.32324 134.28986 99.81203 133.88892 C 99.819765 133.27401 99.846334 132.61358 99.916295 131.85062 C 99.9863 131.08718 100.08065 130.43121 100.18503 129.82407 C 99.776653 129.34824 99.351731 128.82585 98.891271 128.19842 C 98.431133 127.57144 98.061434 127.01177 97.732613 126.4832 C 97.099189 126.36915 96.421317 126.22914 95.645853 126.03089 C 94.871005 125.8328 94.211122 125.63058 93.603148 125.42733 C 93.040995 125.7285 92.426241 126.03606 91.698484 126.35984 C 90.970583 126.68369 90.329511 126.93406 89.726269 127.15137 C 89.498622 127.72649 89.237127 128.33871 88.898026 129.03254 C 88.558702 129.72683 88.235615 130.31278 87.919995 130.84909 z " /></g></svg>
